<?xml version="1.0" encoding="utf-8"?>
<!-- Generator: Adobe Illustrator 27.5.0, SVG Export Plug-In . SVG Version: 6.00 Build 0)  -->
<svg version="1.1" xmlns="http://www.w3.org/2000/svg" xmlns:xlink="http://www.w3.org/1999/xlink" x="0px" y="0px"
	 viewBox="0 0 750 500" style="enable-background:new 0 0 750 500;" xml:space="preserve">
<g id="BACKGROUND">
	<rect style="fill:#FFF1D4;" width="750" height="500"/>
</g>
<g id="OBJECTS" fill-opacity="0.35">
	<g>
		<path style="fill:#FFC870;" d="M40.628,71.319H30.292c-11.673,0-21.136-9.463-21.136-21.136V39.847L40.628,71.319z"/>
		<path style="fill:#FFC870;" d="M40.635,71.319h10.336c11.673,0,21.136-9.463,21.136-21.136V39.847L40.635,71.319z"/>
		<path style="fill:#FFC870;" d="M40.628,8.369H30.292c-11.673,0-21.136,9.463-21.136,21.136v10.336L40.628,8.369z"/>
		<path style="fill:#FFC870;" d="M40.635,8.369h10.336c11.673,0,21.136,9.463,21.136,21.136v10.336L40.635,8.369z"/>
		<rect x="29.797" y="28.981" style="fill:#FFC870;" width="21.952" height="21.952"/>
		<path style="fill:#FFAA00;" d="M110.19,71.319H99.854c-11.673,0-21.136-9.463-21.136-21.136V39.847L110.19,71.319z"/>
		<path style="fill:#FFAA00;" d="M110.197,71.319h10.336c11.673,0,21.136-9.463,21.136-21.136V39.847L110.197,71.319z"/>
		<path style="fill:#FFAA00;" d="M110.19,8.369H99.854c-11.673,0-21.136,9.463-21.136,21.136v10.336L110.19,8.369z"/>
		<path style="fill:#FFAA00;" d="M110.197,8.369h10.336c11.673,0,21.136,9.463,21.136,21.136v10.336L110.197,8.369z"/>
		
			<rect x="99.359" y="28.981" transform="matrix(0.7071 0.7071 -0.7071 0.7071 60.5701 -66.3159)" style="fill:#059E96;" width="21.952" height="21.952"/>
		
			<rect x="103.845" y="174.408" transform="matrix(0.7071 0.7071 -0.7071 0.7071 160.2313 -25.0348)" style="fill:#059E96;" width="12.981" height="12.981"/>
		
			<rect x="100.028" y="99.804" transform="matrix(0.7071 0.7071 -0.7071 0.7071 110.8458 -46.0446)" style="fill:#059E96;" width="21.952" height="21.952"/>
		
			<rect x="172.466" y="104.153" transform="matrix(0.7071 0.7071 -0.7071 0.7071 131.013 -94.2843)" style="fill:#059E96;" width="13.704" height="13.704"/>
		<path style="fill:#FFC870;" d="M179.72,71.319h-10.336c-11.673,0-21.136-9.463-21.136-21.136V39.847L179.72,71.319z"/>
		<path style="fill:#FFC870;" d="M179.72,8.369h-10.336c-11.673,0-21.136,9.463-21.136,21.136v10.336L179.72,8.369z"/>
		<path style="fill:#FFC870;" d="M179.727,8.369h10.336c11.673,0,21.136,9.463,21.136,21.136v10.336L179.727,8.369z"/>
		<path style="fill:#FFC870;" d="M249.251,8.369h-10.336c-11.673,0-21.136,9.463-21.136,21.136v10.336L249.251,8.369z"/>
		<path style="fill:#FFC870;" d="M40.628,141.574H30.292c-11.673,0-21.136-9.463-21.136-21.136v-10.336L40.628,141.574z"/>
		<path style="fill:#FFC870;" d="M40.635,141.574h10.336c11.673,0,21.136-9.463,21.136-21.136v-10.336L40.635,141.574z"/>
		<path style="fill:#FFC870;" d="M40.628,78.624H30.292c-11.673,0-21.136,9.463-21.136,21.136v10.336L40.628,78.624z"/>
		<path style="fill:#FFC870;" d="M40.635,78.624h10.336c11.673,0,21.136,9.463,21.136,21.136v10.336L40.635,78.624z"/>
		<rect x="29.797" y="99.235" style="fill:#FFC870;" width="21.952" height="21.952"/>
		<path style="fill:#FFAA00;" d="M110.19,141.574H99.854c-11.673,0-21.136-9.463-21.136-21.136v-10.336L110.19,141.574z"/>
		<path style="fill:#FFAA00;" d="M110.197,141.574h10.336c11.673,0,21.136-9.463,21.136-21.136v-10.336L110.197,141.574z"/>
		<path style="fill:#FFAA00;" d="M110.19,78.624H99.854c-11.673,0-21.136,9.463-21.136,21.136v10.336L110.19,78.624z"/>
		<path style="fill:#FFAA00;" d="M110.197,78.624h10.336c11.673,0,21.136,9.463,21.136,21.136v10.336L110.197,78.624z"/>
		<path style="fill:#FFC870;" d="M179.727,141.574h10.336c11.673,0,21.136-9.463,21.136-21.136v-10.336L179.727,141.574z"/>
		<path style="fill:#FFAA00;" d="M179.72,78.624h-10.336c-11.673,0-21.136,9.463-21.136,21.136v10.336L179.72,78.624z"/>
		<path style="fill:#FFC870;" d="M179.727,78.624h10.336c11.673,0,21.136,9.463,21.136,21.136v10.336L179.727,78.624z"/>
		<path style="fill:#FFC870;" d="M249.251,141.574h-10.336c-11.673,0-21.136-9.463-21.136-21.136v-10.336L249.251,141.574z"/>
		<path style="fill:#FFC870;" d="M249.258,141.574h10.336c11.673,0,21.136-9.463,21.136-21.136v-10.336L249.258,141.574z"/>
		<rect x="142.162" y="71.448" style="fill:#059E96;" width="6.758" height="6.758"/>
		<path style="fill:#FFC870;" d="M40.628,211.599H30.292c-11.673,0-21.136-9.463-21.136-21.136v-10.336L40.628,211.599z"/>
		<path style="fill:#FFC870;" d="M40.635,211.599h10.336c11.673,0,21.136-9.463,21.136-21.136v-10.336L40.635,211.599z"/>
		<path style="fill:#FFC870;" d="M40.628,148.649H30.292c-11.673,0-21.136,9.463-21.136,21.136v10.336L40.628,148.649z"/>
		<path style="fill:#FFC870;" d="M40.635,148.649h10.336c11.673,0,21.136,9.463,21.136,21.136v10.336L40.635,148.649z"/>
		<rect x="29.797" y="169.26" style="fill:#FFC870;" width="21.952" height="21.952"/>
		<rect x="168.141" y="169.26" style="fill:#FFC870;" width="21.952" height="21.952"/>
		<path style="fill:#FFC870;" d="M110.19,211.599H99.854c-11.673,0-21.136-9.463-21.136-21.136v-10.336L110.19,211.599z"/>
		<path style="fill:#FFC870;" d="M110.197,211.599h10.336c11.673,0,21.136-9.463,21.136-21.136v-10.336L110.197,211.599z"/>
		<path style="fill:#FFAA00;" d="M110.19,148.649H99.854c-11.673,0-21.136,9.463-21.136,21.136v10.336L110.19,148.649z"/>
		<path style="fill:#FFAA00;" d="M110.197,148.649h10.336c11.673,0,21.136,9.463,21.136,21.136v10.336L110.197,148.649z"/>
		<path style="fill:#FFC870;" d="M179.72,211.599h-10.336c-11.673,0-21.136-9.463-21.136-21.136v-10.336L179.72,211.599z"/>
		<path style="fill:#FFC870;" d="M179.727,211.599h10.336c11.673,0,21.136-9.463,21.136-21.136v-10.336L179.727,211.599z"/>
		<path style="fill:#FFC870;" d="M179.727,148.649h10.336c11.673,0,21.136,9.463,21.136,21.136v10.336L179.727,148.649z"/>
		<path style="fill:#FFC870;" d="M249.258,211.599h10.336c11.673,0,21.136-9.463,21.136-21.136v-10.336L249.258,211.599z"/>
		<path style="fill:#FFC870;" d="M249.251,148.649h-10.336c-11.673,0-21.136,9.463-21.136,21.136v10.336L249.251,148.649z"/>
		<path style="fill:#FFC870;" d="M40.628,281.853H30.292c-11.673,0-21.136-9.463-21.136-21.136v-10.336L40.628,281.853z"/>
		<path style="fill:#FFC870;" d="M40.635,281.853h10.336c11.673,0,21.136-9.463,21.136-21.136v-10.336L40.635,281.853z"/>
		<path style="fill:#FFC870;" d="M40.628,218.903H30.292c-11.673,0-21.136,9.463-21.136,21.136v10.336L40.628,218.903z"/>
		<path style="fill:#FFC870;" d="M40.635,218.903h10.336c11.673,0,21.136,9.463,21.136,21.136v10.336L40.635,218.903z"/>
		<rect x="29.797" y="239.515" style="fill:#FFC870;" width="21.952" height="21.952"/>
		<path style="fill:#FFC870;" d="M110.19,281.853H99.854c-11.673,0-21.136-9.463-21.136-21.136v-10.336L110.19,281.853z"/>
		<path style="fill:#FFC870;" d="M110.197,281.853h10.336c11.673,0,21.136-9.463,21.136-21.136v-10.336L110.197,281.853z"/>
		<path style="fill:#FFC870;" d="M110.19,218.903H99.854c-11.673,0-21.136,9.463-21.136,21.136v10.336L110.19,218.903z"/>
		<path style="fill:#FFC870;" d="M110.197,218.903h10.336c11.673,0,21.136,9.463,21.136,21.136v10.336L110.197,218.903z"/>
		<path style="fill:#FFAA00;" d="M179.72,281.853h-10.336c-11.673,0-21.136-9.463-21.136-21.136v-10.336L179.72,281.853z"/>
		<path style="fill:#FFAA00;" d="M179.727,281.853h10.336c11.673,0,21.136-9.463,21.136-21.136v-10.336L179.727,281.853z"/>
		<path style="fill:#FFAA00;" d="M179.72,218.903h-10.336c-11.673,0-21.136,9.463-21.136,21.136v10.336L179.72,218.903z"/>
		
			<rect x="168.89" y="239.515" transform="matrix(0.7071 0.7071 -0.7071 0.7071 229.804 -53.8174)" style="fill:#059E96;" width="21.952" height="21.952"/>
		<path style="fill:#FFC870;" d="M249.251,281.853h-10.336c-11.673,0-21.136-9.463-21.136-21.136v-10.336L249.251,281.853z"/>
		<rect x="72.479" y="211.728" style="fill:#059E96;" width="6.758" height="6.758"/>
		<rect x="212.499" y="211.728" style="fill:#059E96;" width="6.758" height="6.758"/>
		<rect x="142.061" y="141.147" style="fill:#059E96;" width="6.758" height="6.758"/>
		<path style="fill:#FFC870;" d="M40.628,351.878H30.292c-11.673,0-21.136-9.463-21.136-21.136v-10.336L40.628,351.878z"/>
		<path style="fill:#FFC870;" d="M40.635,351.878h10.336c11.673,0,21.136-9.463,21.136-21.136v-10.336L40.635,351.878z"/>
		<path style="fill:#FFC870;" d="M40.628,288.928H30.292c-11.673,0-21.136,9.463-21.136,21.136V320.4L40.628,288.928z"/>
		<path style="fill:#FFC870;" d="M40.635,288.928h10.336c11.673,0,21.136,9.463,21.136,21.136V320.4L40.635,288.928z"/>
		<rect x="29.797" y="309.539" style="fill:#FFC870;" width="21.952" height="21.952"/>
		<path style="fill:#FFAA00;" d="M110.19,351.878H99.854c-11.673,0-21.136-9.463-21.136-21.136v-10.336L110.19,351.878z"/>
		<path style="fill:#FFAA00;" d="M110.197,351.878h10.336c11.673,0,21.136-9.463,21.136-21.136v-10.336L110.197,351.878z"/>
		<path style="fill:#FFAA00;" d="M110.19,288.928H99.854c-11.673,0-21.136,9.463-21.136,21.136V320.4L110.19,288.928z"/>
		<path style="fill:#FFAA00;" d="M110.197,288.928h10.336c11.673,0,21.136,9.463,21.136,21.136V320.4L110.197,288.928z"/>
		
			<rect x="99.359" y="309.539" transform="matrix(0.7071 0.7071 -0.7071 0.7071 258.9551 15.8579)" style="fill:#059E96;" width="21.952" height="21.952"/>
		<path style="fill:#FFC870;" d="M39.632,491.967H29.296c-11.673,0-21.136-9.463-21.136-21.136v-10.336L39.632,491.967z"/>
		<path style="fill:#FFC870;" d="M39.632,429.017H29.296c-11.673,0-21.136,9.463-21.136,21.136v10.336L39.632,429.017z"/>
		<path style="fill:#FFC870;" d="M39.639,429.017h10.336c11.673,0,21.136,9.463,21.136,21.136v10.336L39.639,429.017z"/>
		<path style="fill:#FFC870;" d="M109.162,491.967H98.826c-11.673,0-21.136-9.463-21.136-21.136v-10.336L109.162,491.967z"/>
		<path style="fill:#FFC870;" d="M109.169,491.967h10.336c11.673,0,21.136-9.463,21.136-21.136v-10.336L109.169,491.967z"/>
		<path style="fill:#FFC870;" d="M40.628,422.133H30.292c-11.673,0-21.136-9.463-21.136-21.136v-10.336L40.628,422.133z"/>
		<path style="fill:#FFC870;" d="M40.635,422.133h10.336c11.673,0,21.136-9.463,21.136-21.136v-10.336L40.635,422.133z"/>
		<path style="fill:#FFC870;" d="M40.628,359.183H30.292c-11.673,0-21.136,9.463-21.136,21.136v10.336L40.628,359.183z"/>
		<path style="fill:#FFC870;" d="M40.635,359.183h10.336c11.673,0,21.136,9.463,21.136,21.136v10.336L40.635,359.183z"/>
		<rect x="29.797" y="379.794" style="fill:#FFC870;" width="21.952" height="21.952"/>
		<path style="fill:#FFC870;" d="M110.19,422.133H99.854c-11.673,0-21.136-9.463-21.136-21.136v-10.336L110.19,422.133z"/>
		<path style="fill:#FFC870;" d="M110.197,422.133h10.336c11.673,0,21.136-9.463,21.136-21.136v-10.336L110.197,422.133z"/>
		<path style="fill:#FFAA00;" d="M110.19,359.183H99.854c-11.673,0-21.136,9.463-21.136,21.136v10.336L110.19,359.183z"/>
		<path style="fill:#FFC870;" d="M110.197,359.183h10.336c11.673,0,21.136,9.463,21.136,21.136v10.336L110.197,359.183z"/>
		<rect x="72.479" y="352.007" style="fill:#059E96;" width="6.758" height="6.758"/>
		<rect x="142.162" y="352.007" style="fill:#059E96;" width="6.758" height="6.758"/>
		<path style="fill:#FFC870;" d="M711.418,429.017h10.336c11.673,0,21.136,9.463,21.136,21.136v10.336L711.418,429.017z"/>
		<path style="fill:#FFC870;" d="M711.411,429.017h-10.336c-11.673,0-21.136,9.463-21.136,21.136v10.336L711.411,429.017z"/>
		<path style="fill:#FFC870;" d="M711.418,491.967h10.336c11.673,0,21.136-9.463,21.136-21.136v-10.336L711.418,491.967z"/>
		<path style="fill:#FFC870;" d="M711.411,491.967h-10.336c-11.673,0-21.136-9.463-21.136-21.136v-10.336L711.411,491.967z"/>
		
			<rect x="700.297" y="449.404" transform="matrix(-1 -1.224647e-16 1.224647e-16 -1 1422.5459 920.7589)" style="fill:#FFC870;" width="21.952" height="21.952"/>
		<path style="fill:#FFAA00;" d="M641.856,429.017h10.336c11.673,0,21.136,9.463,21.136,21.136v10.336L641.856,429.017z"/>
		<path style="fill:#FFAA00;" d="M641.849,429.017h-10.336c-11.673,0-21.136,9.463-21.136,21.136v10.336L641.849,429.017z"/>
		<path style="fill:#FFAA00;" d="M641.856,491.967h10.336c11.673,0,21.136-9.463,21.136-21.136v-10.336L641.856,491.967z"/>
		<path style="fill:#FFAA00;" d="M641.849,491.967h-10.336c-11.673,0-21.136-9.463-21.136-21.136v-10.336L641.849,491.967z"/>
		
			<rect x="630.735" y="449.403" transform="matrix(-0.7071 -0.7071 0.7071 -0.7071 769.9318 1239.675)" style="fill:#059E96;" width="21.952" height="21.952"/>
		
			<rect x="635.22" y="312.947" transform="matrix(-0.7071 -0.7071 0.7071 -0.7071 869.5967 999.0703)" style="fill:#059E96;" width="12.981" height="12.981"/>
		
			<rect x="630.067" y="378.58" transform="matrix(-0.7071 -0.7071 0.7071 -0.7071 818.8711 1118.2988)" style="fill:#059E96;" width="21.952" height="21.952"/>
		
			<rect x="565.877" y="382.48" transform="matrix(-0.7071 -0.7071 0.7071 -0.7071 702.41 1069.6106)" style="fill:#059E96;" width="13.704" height="13.704"/>
		<path style="fill:#FFC870;" d="M572.326,429.017h10.336c11.673,0,21.136,9.463,21.136,21.136v10.336L572.326,429.017z"/>
		<path style="fill:#FFC870;" d="M572.326,491.967h10.336c11.673,0,21.136-9.463,21.136-21.136v-10.336L572.326,491.967z"/>
		<path style="fill:#FFC870;" d="M572.319,491.967h-10.336c-11.673,0-21.136-9.463-21.136-21.136v-10.336L572.319,491.967z"/>
		<path style="fill:#FFC870;" d="M502.796,491.967h10.336c11.673,0,21.136-9.463,21.136-21.136v-10.336L502.796,491.967z"/>
		<path style="fill:#FFC870;" d="M711.418,358.762h10.336c11.673,0,21.136,9.463,21.136,21.136v10.336L711.418,358.762z"/>
		<path style="fill:#FFC870;" d="M711.411,358.762h-10.336c-11.673,0-21.136,9.463-21.136,21.136v10.336L711.411,358.762z"/>
		<path style="fill:#FFC870;" d="M711.418,421.712h10.336c11.673,0,21.136-9.463,21.136-21.136V390.24L711.418,421.712z"/>
		<path style="fill:#FFC870;" d="M711.411,421.712h-10.336c-11.673,0-21.136-9.463-21.136-21.136V390.24L711.411,421.712z"/>
		
			<rect x="700.297" y="379.149" transform="matrix(-1 -1.224647e-16 1.224647e-16 -1 1422.5459 780.2497)" style="fill:#FFC870;" width="21.952" height="21.952"/>
		<path style="fill:#FFAA00;" d="M641.856,358.762h10.336c11.673,0,21.136,9.463,21.136,21.136v10.336L641.856,358.762z"/>
		<path style="fill:#FFAA00;" d="M641.849,358.762h-10.336c-11.673,0-21.136,9.463-21.136,21.136v10.336L641.849,358.762z"/>
		<path style="fill:#FFAA00;" d="M641.856,421.712h10.336c11.673,0,21.136-9.463,21.136-21.136V390.24L641.856,421.712z"/>
		<path style="fill:#FFAA00;" d="M641.849,421.712h-10.336c-11.673,0-21.136-9.463-21.136-21.136V390.24L641.849,421.712z"/>
		<path style="fill:#FFC870;" d="M572.319,358.762h-10.336c-11.673,0-21.136,9.463-21.136,21.136v10.336L572.319,358.762z"/>
		<path style="fill:#FFAA00;" d="M572.326,421.712h10.336c11.673,0,21.136-9.463,21.136-21.136V390.24L572.326,421.712z"/>
		<path style="fill:#FFAA00;" d="M572.319,421.712h-10.336c-11.673,0-21.136-9.463-21.136-21.136V390.24L572.319,421.712z"/>
		<path style="fill:#FFC870;" d="M502.796,358.762h10.336c11.673,0,21.136,9.463,21.136,21.136v10.336L502.796,358.762z"/>
		<path style="fill:#FFC870;" d="M502.789,358.762h-10.336c-11.673,0-21.136,9.463-21.136,21.136v10.336L502.789,358.762z"/>
		
			<rect x="603.126" y="422.13" transform="matrix(-1 -1.224647e-16 1.224647e-16 -1 1213.0101 851.0175)" style="fill:#059E96;" width="6.758" height="6.758"/>
		<path style="fill:#FFC870;" d="M711.418,288.737h10.336c11.673,0,21.136,9.463,21.136,21.136v10.336L711.418,288.737z"/>
		<path style="fill:#FFC870;" d="M711.411,288.737h-10.336c-11.673,0-21.136,9.463-21.136,21.136v10.336L711.411,288.737z"/>
		<path style="fill:#FFC870;" d="M711.418,351.687h10.336c11.673,0,21.136-9.463,21.136-21.136v-10.336L711.418,351.687z"/>
		<path style="fill:#FFC870;" d="M711.411,351.687h-10.336c-11.673,0-21.136-9.463-21.136-21.136v-10.336L711.411,351.687z"/>
		
			<rect x="700.297" y="309.124" transform="matrix(-1 -1.224647e-16 1.224647e-16 -1 1422.5459 640.2001)" style="fill:#FFC870;" width="21.952" height="21.952"/>
		<path style="fill:#FFC870;" d="M641.856,288.737h10.336c11.673,0,21.136,9.463,21.136,21.136v10.336L641.856,288.737z"/>
		<path style="fill:#FFC870;" d="M641.849,288.737h-10.336c-11.673,0-21.136,9.463-21.136,21.136v10.336L641.849,288.737z"/>
		<path style="fill:#FFAA00;" d="M641.856,351.687h10.336c11.673,0,21.136-9.463,21.136-21.136v-10.336L641.856,351.687z"/>
		<path style="fill:#FFC870;" d="M641.849,351.687h-10.336c-11.673,0-21.136-9.463-21.136-21.136v-10.336L641.849,351.687z"/>
		<path style="fill:#FFC870;" d="M503.1,351.687h10.336c11.673,0,21.136-9.463,21.136-21.136v-10.336L503.1,351.687z"/>
		<path style="fill:#FFC870;" d="M503.094,351.687h-10.336c-11.673,0-21.136-9.463-21.136-21.136v-10.336L503.094,351.687z"/>
		<path style="fill:#FFC870;" d="M572.326,288.737h10.336c11.673,0,21.136,9.463,21.136,21.136v10.336L572.326,288.737z"/>
		<path style="fill:#FFC870;" d="M711.418,218.483h10.336c11.673,0,21.136,9.463,21.136,21.136v10.336L711.418,218.483z"/>
		<path style="fill:#FFC870;" d="M711.411,218.483h-10.336c-11.673,0-21.136,9.463-21.136,21.136v10.336L711.411,218.483z"/>
		<path style="fill:#FFC870;" d="M711.418,281.433h10.336c11.673,0,21.136-9.463,21.136-21.136v-10.336L711.418,281.433z"/>
		<path style="fill:#FFC870;" d="M711.411,281.433h-10.336c-11.673,0-21.136-9.463-21.136-21.136v-10.336L711.411,281.433z"/>
		
			<rect x="700.297" y="238.87" transform="matrix(-1 -1.224647e-16 1.224647e-16 -1 1422.5459 499.6909)" style="fill:#FFC870;" width="21.952" height="21.952"/>
		<path style="fill:#FFC870;" d="M641.856,218.483h10.336c11.673,0,21.136,9.463,21.136,21.136v10.336L641.856,218.483z"/>
		<path style="fill:#FFC870;" d="M641.849,218.483h-10.336c-11.673,0-21.136,9.463-21.136,21.136v10.336L641.849,218.483z"/>
		<path style="fill:#FFC870;" d="M641.856,281.433h10.336c11.673,0,21.136-9.463,21.136-21.136v-10.336L641.856,281.433z"/>
		<path style="fill:#FFC870;" d="M641.849,281.433h-10.336c-11.673,0-21.136-9.463-21.136-21.136v-10.336L641.849,281.433z"/>
		<path style="fill:#FFAA00;" d="M572.326,218.483h10.336c11.673,0,21.136,9.463,21.136,21.136v10.336L572.326,218.483z"/>
		<path style="fill:#FFAA00;" d="M572.319,218.483h-10.336c-11.673,0-21.136,9.463-21.136,21.136v10.336L572.319,218.483z"/>
		<path style="fill:#FFAA00;" d="M572.326,281.433h10.336c11.673,0,21.136-9.463,21.136-21.136v-10.336L572.326,281.433z"/>
		
			<rect x="561.205" y="238.87" transform="matrix(-0.7071 -0.7071 0.7071 -0.7071 800.1042 831.1065)" style="fill:#059E96;" width="21.952" height="21.952"/>
		
			<rect x="672.81" y="281.85" transform="matrix(-1 -1.224647e-16 1.224647e-16 -1 1352.3779 570.4587)" style="fill:#059E96;" width="6.758" height="6.758"/>
		<path style="fill:#FFC870;" d="M711.418,148.458h10.336c11.673,0,21.136,9.463,21.136,21.136v10.336L711.418,148.458z"/>
		<path style="fill:#FFC870;" d="M711.411,148.458h-10.336c-11.673,0-21.136,9.463-21.136,21.136v10.336L711.411,148.458z"/>
		<path style="fill:#FFC870;" d="M711.418,211.408h10.336c11.673,0,21.136-9.463,21.136-21.136v-10.336L711.418,211.408z"/>
		<path style="fill:#FFC870;" d="M711.411,211.408h-10.336c-11.673,0-21.136-9.463-21.136-21.136v-10.336L711.411,211.408z"/>
		
			<rect x="700.297" y="168.845" transform="matrix(-1 -1.224647e-16 1.224647e-16 -1 1422.5459 359.6413)" style="fill:#FFC870;" width="21.952" height="21.952"/>
		<path style="fill:#FFAA00;" d="M641.856,148.458h10.336c11.673,0,21.136,9.463,21.136,21.136v10.336L641.856,148.458z"/>
		<path style="fill:#FFAA00;" d="M641.849,148.458h-10.336c-11.673,0-21.136,9.463-21.136,21.136v10.336L641.849,148.458z"/>
		<path style="fill:#FFAA00;" d="M641.856,211.408h10.336c11.673,0,21.136-9.463,21.136-21.136v-10.336L641.856,211.408z"/>
		<path style="fill:#FFAA00;" d="M641.849,211.408h-10.336c-11.673,0-21.136-9.463-21.136-21.136v-10.336L641.849,211.408z"/>
		
			<rect x="630.735" y="168.845" transform="matrix(-0.7071 -0.7071 0.7071 -0.7071 968.3149 760.7324)" style="fill:#059E96;" width="21.952" height="21.952"/>
		<path style="fill:#FFC870;" d="M712.415,8.369h10.336c11.673,0,21.136,9.463,21.136,21.136v10.336L712.415,8.369z"/>
		<path style="fill:#FFC870;" d="M712.415,71.319h10.336c11.673,0,21.136-9.463,21.136-21.136V39.847L712.415,71.319z"/>
		<path style="fill:#FFC870;" d="M712.408,71.319h-10.336c-11.673,0-21.136-9.463-21.136-21.136V39.847L712.408,71.319z"/>
		<path style="fill:#FFC870;" d="M642.885,8.369h10.336c11.673,0,21.136,9.463,21.136,21.136v10.336L642.885,8.369z"/>
		<path style="fill:#FFC870;" d="M642.878,8.369h-10.336c-11.673,0-21.136,9.463-21.136,21.136v10.336L642.878,8.369z"/>
		<path style="fill:#FFC870;" d="M711.418,78.203h10.336c11.673,0,21.136,9.463,21.136,21.136v10.336L711.418,78.203z"/>
		<path style="fill:#FFC870;" d="M711.411,78.203h-10.336c-11.673,0-21.136,9.463-21.136,21.136v10.336L711.411,78.203z"/>
		<path style="fill:#FFC870;" d="M711.418,141.154h10.336c11.673,0,21.136-9.463,21.136-21.136v-10.336L711.418,141.154z"/>
		<path style="fill:#FFAA00;" d="M711.411,141.154h-10.336c-11.673,0-21.136-9.463-21.136-21.136v-10.336L711.411,141.154z"/>
		
			<rect x="704.224" y="102.518" transform="matrix(-1 -1.224647e-16 1.224647e-16 -1 1422.5459 219.1321)" style="fill:#059E96;" width="14.097" height="14.097"/>
		<path style="fill:#FFC870;" d="M641.856,78.203h10.336c11.673,0,21.136,9.463,21.136,21.136v10.336L641.856,78.203z"/>
		<path style="fill:#FFC870;" d="M641.849,78.203h-10.336c-11.673,0-21.136,9.463-21.136,21.136v10.336L641.849,78.203z"/>
		<path style="fill:#FFC870;" d="M641.856,141.154h10.336c11.673,0,21.136-9.463,21.136-21.136v-10.336L641.856,141.154z"/>
		<path style="fill:#FFC870;" d="M641.849,141.154h-10.336c-11.673,0-21.136-9.463-21.136-21.136v-10.336L641.849,141.154z"/>
		
			<rect x="672.81" y="141.571" transform="matrix(-1 -1.224647e-16 1.224647e-16 -1 1352.3779 289.9)" style="fill:#059E96;" width="6.758" height="6.758"/>
		
			<rect x="603.126" y="141.571" transform="matrix(-1 -1.224647e-16 1.224647e-16 -1 1213.0101 289.9)" style="fill:#059E96;" width="6.758" height="6.758"/>
		
			<rect x="531.348" y="141.571" transform="matrix(-1 -1.224647e-16 1.224647e-16 -1 1069.4535 289.9)" style="fill:#059E96;" width="6.758" height="6.758"/>
	</g>
</g>
</svg>
